<svg xmlns="http://www.w3.org/2000/svg" version="1.0" width="866.000000" height="866.000000" preserveAspectRatio="xMidYMid meet" style=""><rect id="backgroundrect" width="100%" height="100%" x="0" y="0" fill="none" stroke="none"/>


<g class="currentLayer" style=""><title>Layer 1</title><g transform="translate(0,866) scale(0.10000000149011612,-0.10000000149011612) " fill="#000000" stroke="#ffffff" id="svg_1" class="" stroke-opacity="1" stroke-width="16">
<path d="M4595 6697 c-119 -31 -285 -129 -435 -258 -47 -40 -170 -150 -275 -244 -301 -271 -574 -510 -1260 -1105 -964 -835 -1384 -1208 -1847 -1638 l-208 -193 0 -226 c0 -212 1 -225 17 -212 10 8 288 250 618 539 331 289 792 691 1026 895 681 594 1222 1076 1714 1529 l170 156 3 -1160 c1 -638 4 -1160 7 -1160 3 0 182 156 398 347 l392 347 3 -192 c1 -106 6 -192 11 -192 5 0 123 101 262 224 l254 224 5 -373 5 -373 400 353 400 353 5 -195 5 -194 295 261 295 260 5 -867 5 -868 22 -35 c34 -55 103 -117 158 -142 71 -32 202 -32 300 1 88 28 183 78 256 134 65 48 482 416 487 428 2 5 -40 60 -94 123 l-97 114 -61 -52 c-34 -28 -76 -58 -95 -66 -63 -26 -61 -50 -61 674 l0 651 -24 50 c-63 135 -232 267 -396 310 -84 22 -212 16 -291 -14 -93 -35 -161 -87 -434 -329 l-260 -230 -5 157 c-6 187 -18 219 -110 315 -163 169 -387 186 -600 44 -30 -20 -184 -150 -342 -287 -158 -138 -290 -251 -293 -251 -3 0 -5 473 -5 1051 0 1154 1 1139 -60 1231 -53 81 -155 113 -265 85z" id="svg_2" stroke="#ffffff" stroke-opacity="1" stroke-width="16"/>
<path d="M5123 6671 c-40 -25 -49 -65 -28 -117 13 -33 25 -43 80 -68 36 -16 87 -50 114 -76 188 -180 151 -477 -93 -748 -61 -67 -66 -76 -66 -117 0 -31 6 -51 19 -64 36 -36 140 -52 196 -31 78 30 211 182 276 316 44 91 79 234 79 324 -1 169 -68 339 -175 446 -120 121 -316 187 -402 135z" id="svg_3" stroke="#ffffff" stroke-opacity="1" stroke-width="16"/>
<path d="M5715 6678 c-33 -17 -45 -40 -45 -81 0 -57 14 -74 88 -109 301 -145 309 -521 19 -825 -49 -52 -60 -69 -64 -105 -9 -76 47 -118 158 -118 53 0 96 24 172 98 231 225 302 577 171 850 -46 95 -151 205 -235 246 -104 50 -218 70 -264 44z" id="svg_4" stroke="#ffffff" stroke-opacity="1" stroke-width="16"/>
<path d="M6294 6680 c-28 -11 -54 -48 -54 -76 0 -57 21 -84 86 -114 178 -80 265 -250 230 -450 -23 -132 -77 -233 -199 -373 -89 -102 -96 -170 -22 -206 47 -23 136 -26 177 -7 36 17 149 125 194 186 44 60 105 189 126 269 25 97 27 259 4 351 -51 203 -195 358 -385 414 -59 17 -123 20 -157 6z" id="svg_5" stroke="#ffffff" stroke-opacity="1" stroke-width="16"/>
<path d="M3348 4966 c-21 -8 -50 -22 -65 -32 -16 -9 -212 -179 -436 -377 -358 -316 -406 -361 -395 -376 7 -9 50 -60 96 -114 l84 -98 49 43 c71 61 111 89 123 85 8 -3 13 -216 16 -688 l5 -684 25 -49 c64 -125 201 -172 380 -130 79 18 226 88 298 142 44 33 337 287 540 467 l52 47 0 -234 0 -233 30 -51 c46 -80 123 -132 221 -148 55 -10 171 11 259 45 127 49 236 129 535 394 l280 248 5 -245 5 -246 38 -55 c113 -163 318 -190 561 -73 102 49 173 104 379 294 99 92 195 181 214 197 l33 30 -100 113 c-55 61 -104 112 -108 112 -4 0 -32 -20 -62 -45 -70 -57 -110 -77 -127 -63 -10 8 -13 88 -13 354 0 189 -3 344 -7 344 -5 -1 -188 -160 -408 -355 l-400 -354 -5 194 -5 195 -155 -136 c-188 -164 -268 -223 -314 -231 -31 -5 -36 -3 -41 19 -4 14 -5 165 -3 336 2 172 0 312 -3 312 -4 0 -188 -161 -410 -357 l-404 -357 -5 198 -5 198 -115 -102 c-225 -200 -324 -269 -363 -254 -8 3 -18 15 -21 27 -3 12 -6 362 -6 777 0 496 -4 768 -11 793 -5 21 -24 54 -42 74 -53 61 -120 77 -199 49z" id="svg_6" stroke="#ffffff" stroke-opacity="1" stroke-width="16"/>
</g></g></svg>